<svg xmlns="http://www.w3.org/2000/svg" xmlns:xlink="http://www.w3.org/1999/xlink" width="1920" zoomAndPan="magnify" viewBox="0 0 1440 809.999993" height="1080" preserveAspectRatio="xMidYMid meet" version="1.0"><defs><g/><clipPath id="a5d8b5788b"><path d="M 1175.90625 366.570312 L 1252.765625 366.570312 L 1252.765625 443.429688 L 1175.90625 443.429688 Z M 1175.90625 366.570312 " clip-rule="nonzero"/></clipPath><clipPath id="df830180dd"><path d="M 1214.335938 366.570312 C 1193.109375 366.570312 1175.90625 383.777344 1175.90625 405 C 1175.90625 426.222656 1193.109375 443.429688 1214.335938 443.429688 C 1235.558594 443.429688 1252.765625 426.222656 1252.765625 405 C 1252.765625 383.777344 1235.558594 366.570312 1214.335938 366.570312 " clip-rule="nonzero"/></clipPath></defs><g clip-path="url(#a5d8b5788b)"><g clip-path="url(#df830180dd)"><path fill="#8c55a2" d="M 1175.90625 366.570312 L 1252.765625 366.570312 L 1252.765625 443.429688 L 1175.90625 443.429688 Z M 1175.90625 366.570312 " fill-opacity="1" fill-rule="nonzero"/></g></g><g fill="#000000" fill-opacity="1"><g transform="translate(247.532251, 460.603666)"><g><path d="M 39.480469 -68.195312 C 39.480469 -73.578125 35.890625 -80.039062 35.890625 -82.550781 C 35.890625 -92.601562 64.246094 -96.90625 75.371094 -96.90625 C 87.933594 -96.90625 97.625 -91.164062 100.496094 -70.347656 C 105.519531 -34.457031 114.851562 0 147.15625 0 C 163.664062 0 172.277344 -5.023438 172.277344 -14.355469 C 172.277344 -20.097656 167.253906 -25.125 161.511719 -25.125 C 154.691406 -25.125 156.84375 -21.535156 147.15625 -21.535156 C 136.386719 -21.535156 127.773438 -33.738281 122.03125 -73.21875 C 117.722656 -102.648438 98.703125 -118.441406 75.371094 -118.441406 C 49.171875 -118.441406 14.355469 -108.390625 14.355469 -82.550781 C 14.355469 -70.707031 18.304688 -57.425781 28.714844 -57.425781 C 35.171875 -57.425781 39.480469 -62.808594 39.480469 -68.195312 Z M 39.480469 -68.195312 "/></g></g></g><g fill="#000000" fill-opacity="1"><g transform="translate(434.158945, 460.603666)"><g><path d="M 71.78125 0 C 87.214844 0 100.496094 -2.511719 119.519531 -11.84375 C 123.109375 -13.640625 125.621094 -17.585938 125.621094 -21.535156 C 125.621094 -27.996094 120.238281 -32.300781 114.851562 -32.300781 C 113.417969 -32.300781 111.621094 -31.945312 110.1875 -31.226562 C 93.316406 -22.613281 85.0625 -21.535156 71.78125 -21.535156 C 66.039062 -21.535156 61.015625 -22.613281 56.707031 -24.40625 C 80.753906 -32.300781 104.085938 -55.632812 104.085938 -82.550781 C 104.085938 -102.648438 88.292969 -118.441406 68.195312 -118.441406 C 36.25 -118.441406 14.355469 -91.164062 14.355469 -61.015625 C 14.355469 -26.917969 37.328125 0 71.78125 0 Z M 82.550781 -82.550781 C 82.550781 -64.605469 58.863281 -43.070312 39.121094 -43.070312 C 36.96875 -48.09375 35.890625 -54.195312 35.890625 -61.015625 C 35.890625 -81.113281 49.890625 -96.90625 68.195312 -96.90625 C 76.808594 -96.90625 82.550781 -91.164062 82.550781 -82.550781 Z M 82.550781 -82.550781 "/></g></g></g><g fill="#000000" fill-opacity="1"><g transform="translate(574.128987, 460.603666)"><g><path d="M 172.277344 -93.316406 C 172.277344 -94.753906 171.921875 -96.546875 171.203125 -97.984375 C 167.253906 -105.878906 159.359375 -118.441406 143.566406 -118.441406 C 120.238281 -118.441406 108.035156 -92.957031 101.214844 -75.730469 C 89.730469 -46.660156 76.089844 -21.535156 61.015625 -21.535156 C 48.8125 -21.535156 39.839844 -47.375 35.890625 -87.214844 C 35.171875 -92.601562 30.507812 -96.90625 25.125 -96.90625 C 19.023438 -96.90625 14.355469 -91.882812 14.355469 -86.140625 C 14.355469 -53.835938 25.125 0 61.015625 0 C 96.1875 0 111.261719 -43.070312 121.3125 -67.835938 C 128.851562 -86.5 138.183594 -96.90625 143.566406 -96.90625 C 145.71875 -96.90625 148.589844 -95.113281 151.820312 -88.652344 C 153.617188 -85.0625 157.5625 -82.550781 161.511719 -82.550781 C 167.972656 -82.550781 172.277344 -87.933594 172.277344 -93.316406 Z M 172.277344 -93.316406 "/></g></g></g><g fill="#000000" fill-opacity="1"><g transform="translate(760.755681, 460.603666)"><g><path d="M 71.78125 0 C 87.214844 0 100.496094 -2.511719 119.519531 -11.84375 C 123.109375 -13.640625 125.621094 -17.585938 125.621094 -21.535156 C 125.621094 -27.996094 120.238281 -32.300781 114.851562 -32.300781 C 113.417969 -32.300781 111.621094 -31.945312 110.1875 -31.226562 C 93.316406 -22.613281 85.0625 -21.535156 71.78125 -21.535156 C 66.039062 -21.535156 61.015625 -22.613281 56.707031 -24.40625 C 80.753906 -32.300781 104.085938 -55.632812 104.085938 -82.550781 C 104.085938 -102.648438 88.292969 -118.441406 68.195312 -118.441406 C 36.25 -118.441406 14.355469 -91.164062 14.355469 -61.015625 C 14.355469 -26.917969 37.328125 0 71.78125 0 Z M 82.550781 -82.550781 C 82.550781 -64.605469 58.863281 -43.070312 39.121094 -43.070312 C 36.96875 -48.09375 35.890625 -54.195312 35.890625 -61.015625 C 35.890625 -81.113281 49.890625 -96.90625 68.195312 -96.90625 C 76.808594 -96.90625 82.550781 -91.164062 82.550781 -82.550781 Z M 82.550781 -82.550781 "/></g></g></g><g fill="#000000" fill-opacity="1"><g transform="translate(828.949418, 471.371111)"><g><path d="M 35.890625 -236.882812 C 32.660156 -236.882812 29.429688 -235.449219 27.277344 -232.578125 C 15.792969 -217.144531 1.078125 -191.660156 -10.050781 -165.820312 C -10.765625 -164.382812 -10.765625 -162.945312 -10.765625 -161.511719 C -10.765625 -156.128906 -6.460938 -150.742188 0 -150.742188 C 4.308594 -150.742188 8.253906 -153.257812 10.050781 -157.203125 C 20.457031 -181.609375 34.457031 -206.375 44.503906 -219.65625 C 45.941406 -221.449219 46.660156 -223.960938 46.660156 -226.117188 C 46.660156 -231.859375 41.992188 -236.882812 35.890625 -236.882812 Z M 35.890625 -236.882812 "/></g></g></g><g fill="#000000" fill-opacity="1"><g transform="translate(900.725723, 460.603666)"><g><path d="M 25.125 0 C 28.714844 0 31.945312 -1.792969 34.097656 -5.023438 C 66.398438 -55.632812 108.75 -96.90625 132.796875 -96.90625 C 146.078125 -96.90625 161.511719 -78.242188 161.511719 -61.015625 C 161.511719 -39.480469 142.488281 -21.535156 122.03125 -21.535156 C 108.035156 -21.535156 109.46875 -28.714844 100.496094 -28.714844 C 94.753906 -28.714844 89.730469 -24.046875 89.730469 -17.945312 C 89.730469 -15.074219 90.804688 -12.203125 93.316406 -10.050781 C 94.394531 -8.972656 104.804688 0 122.03125 0 C 153.972656 0 183.046875 -27.277344 183.046875 -61.015625 C 183.046875 -86.855469 162.589844 -118.441406 132.796875 -118.441406 C 92.242188 -118.441406 48.453125 -66.398438 16.152344 -16.511719 C 15.074219 -14.714844 14.355469 -12.921875 14.355469 -10.765625 C 14.355469 -5.382812 19.023438 0 25.125 0 Z M 25.125 0 "/></g></g></g></svg>